# xmcd CD database file
#
# Track frame offsets:
#	150
#	22146
#	48921
#	62488
#	84687
#	96831
#	116830
#	144640
#	166820
#	177212
#	193257
#	212338
#	234114
#	264030
#	286877
#
# Disc length: 4061 seconds
#
# Revision: 0
# Processed by: cddbd v1.5.1PL2 Copyright (c) Steve Scherf et al.
# Submitted via: Feurio! 1.68 - http://www.feurio.com
#
DISCID=c90fdb0f
DTITLE=Various Artist - Blues Smooth Grooves
DYEAR=1900
DGENRE=Blues
TTITLE0=Robben Ford and Blue Line - When I Leave Her
TTITLE1=Larry Carlton and Terry McMillan - Cold Day In Hell
TTITLE2=Greg Allman Band - Brightest Smile In Town
TTITLE3=Roy Buchanan - Wayfaring Pilgrim
TTITLE4=Bonnie Bramlett - Two Steps From The Blues
TTITLE5=Diane Schuur and B B King - I Can't Stop Loving You
TTITLE6=Ronnie Earl and Broadcasters - Heart Of Glass
TTITLE7=Mighty Mo Rodgers - Ne Regrets
TTITLE8=J. J. Cale - After Midnight
TTITLE9=Buddy Miles - Midnight Rider
TTITLE10=Doyle Bramhall II - Ain't Goin' Down Slow
TTITLE11=Arc Angels - Living In A Dream
TTITLE12=Lucky Peterson - Wash My Back
TTITLE13=Kevin Eubanks - Angel With The Blues
TTITLE14=Dr. John - New York City Blues
EXTD=
EXTT0=
EXTT1=
EXTT2=
EXTT3=
EXTT4=
EXTT5=
EXTT6=
EXTT7=
EXTT8=
EXTT9=
EXTT10=
EXTT11=
EXTT12=
EXTT13=
EXTT14=
PLAYORDER=
